<mxfile host="app.diagrams.net" agent="Mozilla/5.0 (X11; Ubuntu; Linux x86_64; rv:126.0) Gecko/20100101 Firefox/126.0" version="24.7.15">
  <diagram id="R2lEEEUBdFMjLlhIrx00" name="Page-1">
    <mxGraphModel dx="2899" dy="2230" grid="1" gridSize="10" guides="1" tooltips="1" connect="1" arrows="1" fold="1" page="1" pageScale="1" pageWidth="850" pageHeight="1100" math="0" shadow="0" extFonts="Permanent Marker^https://fonts.googleapis.com/css?family=Permanent+Marker">
      <root>
        <mxCell id="0" />
        <mxCell id="1" parent="0" />
        <mxCell id="-AXVuOv84AiDHwy_gBt_-83" style="edgeStyle=none;curved=1;rounded=0;orthogonalLoop=1;jettySize=auto;html=1;exitX=0.5;exitY=1;exitDx=0;exitDy=0;entryX=1;entryY=0.5;entryDx=0;entryDy=0;fontSize=12;startSize=8;endSize=8;endArrow=none;endFill=0;" parent="1" source="C-vyLk0tnHw3VtMMgP7b-23" target="-AXVuOv84AiDHwy_gBt_-56" edge="1">
          <mxGeometry relative="1" as="geometry" />
        </mxCell>
        <mxCell id="-AXVuOv84AiDHwy_gBt_-87" value="1...1" style="edgeLabel;html=1;align=center;verticalAlign=middle;resizable=0;points=[];fontSize=12;" parent="-AXVuOv84AiDHwy_gBt_-83" vertex="1" connectable="0">
          <mxGeometry x="-0.5244" y="2" relative="1" as="geometry">
            <mxPoint as="offset" />
          </mxGeometry>
        </mxCell>
        <mxCell id="-AXVuOv84AiDHwy_gBt_-90" value="ID" style="edgeLabel;html=1;align=center;verticalAlign=middle;resizable=0;points=[];fontSize=12;" parent="-AXVuOv84AiDHwy_gBt_-83" vertex="1" connectable="0">
          <mxGeometry x="0.3819" relative="1" as="geometry">
            <mxPoint y="25" as="offset" />
          </mxGeometry>
        </mxCell>
        <mxCell id="-AXVuOv84AiDHwy_gBt_-95" value="1...n" style="edgeLabel;html=1;align=center;verticalAlign=middle;resizable=0;points=[];fontSize=12;" parent="-AXVuOv84AiDHwy_gBt_-83" vertex="1" connectable="0">
          <mxGeometry x="0.3982" y="-1" relative="1" as="geometry">
            <mxPoint as="offset" />
          </mxGeometry>
        </mxCell>
        <mxCell id="C-vyLk0tnHw3VtMMgP7b-23" value="Clientes" style="shape=table;startSize=30;container=1;collapsible=1;childLayout=tableLayout;fixedRows=1;rowLines=0;fontStyle=1;align=center;resizeLast=1;" parent="1" vertex="1">
          <mxGeometry x="177.5" y="-410" width="250" height="120" as="geometry" />
        </mxCell>
        <mxCell id="C-vyLk0tnHw3VtMMgP7b-24" value="" style="shape=partialRectangle;collapsible=0;dropTarget=0;pointerEvents=0;fillColor=none;points=[[0,0.5],[1,0.5]];portConstraint=eastwest;top=0;left=0;right=0;bottom=1;" parent="C-vyLk0tnHw3VtMMgP7b-23" vertex="1">
          <mxGeometry y="30" width="250" height="20" as="geometry" />
        </mxCell>
        <mxCell id="C-vyLk0tnHw3VtMMgP7b-25" value="PK" style="shape=partialRectangle;overflow=hidden;connectable=0;fillColor=none;top=0;left=0;bottom=0;right=0;fontStyle=1;" parent="C-vyLk0tnHw3VtMMgP7b-24" vertex="1">
          <mxGeometry width="30" height="20" as="geometry">
            <mxRectangle width="30" height="20" as="alternateBounds" />
          </mxGeometry>
        </mxCell>
        <mxCell id="C-vyLk0tnHw3VtMMgP7b-26" value="dni_cliente" style="shape=partialRectangle;overflow=hidden;connectable=0;fillColor=none;top=0;left=0;bottom=0;right=0;align=left;spacingLeft=6;fontStyle=5;" parent="C-vyLk0tnHw3VtMMgP7b-24" vertex="1">
          <mxGeometry x="30" width="220" height="20" as="geometry">
            <mxRectangle width="220" height="20" as="alternateBounds" />
          </mxGeometry>
        </mxCell>
        <mxCell id="C-vyLk0tnHw3VtMMgP7b-27" value="" style="shape=partialRectangle;collapsible=0;dropTarget=0;pointerEvents=0;fillColor=none;points=[[0,0.5],[1,0.5]];portConstraint=eastwest;top=0;left=0;right=0;bottom=0;" parent="C-vyLk0tnHw3VtMMgP7b-23" vertex="1">
          <mxGeometry y="50" width="250" height="30" as="geometry" />
        </mxCell>
        <mxCell id="C-vyLk0tnHw3VtMMgP7b-28" value="" style="shape=partialRectangle;overflow=hidden;connectable=0;fillColor=none;top=0;left=0;bottom=0;right=0;" parent="C-vyLk0tnHw3VtMMgP7b-27" vertex="1">
          <mxGeometry width="30" height="30" as="geometry">
            <mxRectangle width="30" height="30" as="alternateBounds" />
          </mxGeometry>
        </mxCell>
        <mxCell id="C-vyLk0tnHw3VtMMgP7b-29" value="nombre STRING" style="shape=partialRectangle;overflow=hidden;connectable=0;fillColor=none;top=0;left=0;bottom=0;right=0;align=left;spacingLeft=6;" parent="C-vyLk0tnHw3VtMMgP7b-27" vertex="1">
          <mxGeometry x="30" width="220" height="30" as="geometry">
            <mxRectangle width="220" height="30" as="alternateBounds" />
          </mxGeometry>
        </mxCell>
        <mxCell id="-AXVuOv84AiDHwy_gBt_-51" value="" style="shape=partialRectangle;collapsible=0;dropTarget=0;pointerEvents=0;fillColor=none;points=[[0,0.5],[1,0.5]];portConstraint=eastwest;top=0;left=0;right=0;bottom=0;" parent="C-vyLk0tnHw3VtMMgP7b-23" vertex="1">
          <mxGeometry y="80" width="250" height="30" as="geometry" />
        </mxCell>
        <mxCell id="-AXVuOv84AiDHwy_gBt_-52" value="" style="shape=partialRectangle;overflow=hidden;connectable=0;fillColor=none;top=0;left=0;bottom=0;right=0;" parent="-AXVuOv84AiDHwy_gBt_-51" vertex="1">
          <mxGeometry width="30" height="30" as="geometry">
            <mxRectangle width="30" height="30" as="alternateBounds" />
          </mxGeometry>
        </mxCell>
        <mxCell id="-AXVuOv84AiDHwy_gBt_-53" value="telefono STRING" style="shape=partialRectangle;overflow=hidden;connectable=0;fillColor=none;top=0;left=0;bottom=0;right=0;align=left;spacingLeft=6;" parent="-AXVuOv84AiDHwy_gBt_-51" vertex="1">
          <mxGeometry x="30" width="220" height="30" as="geometry">
            <mxRectangle width="220" height="30" as="alternateBounds" />
          </mxGeometry>
        </mxCell>
        <mxCell id="-AXVuOv84AiDHwy_gBt_-81" style="edgeStyle=none;curved=1;rounded=0;orthogonalLoop=1;jettySize=auto;html=1;exitX=0.5;exitY=0;exitDx=0;exitDy=0;fontSize=12;startSize=8;endSize=8;entryX=0.05;entryY=0.038;entryDx=0;entryDy=0;entryPerimeter=0;endArrow=none;endFill=0;" parent="1" source="-AXVuOv84AiDHwy_gBt_-1" target="-AXVuOv84AiDHwy_gBt_-57" edge="1">
          <mxGeometry relative="1" as="geometry">
            <mxPoint x="230" y="-110" as="targetPoint" />
          </mxGeometry>
        </mxCell>
        <mxCell id="-AXVuOv84AiDHwy_gBt_-85" value="1...1" style="edgeLabel;html=1;align=center;verticalAlign=middle;resizable=0;points=[];fontSize=12;" parent="-AXVuOv84AiDHwy_gBt_-81" vertex="1" connectable="0">
          <mxGeometry x="-0.7947" y="-1" relative="1" as="geometry">
            <mxPoint as="offset" />
          </mxGeometry>
        </mxCell>
        <mxCell id="-AXVuOv84AiDHwy_gBt_-89" value="E" style="edgeLabel;html=1;align=center;verticalAlign=middle;resizable=0;points=[];fontSize=12;" parent="-AXVuOv84AiDHwy_gBt_-81" vertex="1" connectable="0">
          <mxGeometry x="-0.5218" y="-3" relative="1" as="geometry">
            <mxPoint x="90" y="-66" as="offset" />
          </mxGeometry>
        </mxCell>
        <mxCell id="-AXVuOv84AiDHwy_gBt_-94" value="1...1" style="edgeLabel;html=1;align=center;verticalAlign=middle;resizable=0;points=[];fontSize=12;" parent="-AXVuOv84AiDHwy_gBt_-81" vertex="1" connectable="0">
          <mxGeometry x="0.544" y="1" relative="1" as="geometry">
            <mxPoint as="offset" />
          </mxGeometry>
        </mxCell>
        <mxCell id="-AXVuOv84AiDHwy_gBt_-1" value="Vivienda" style="shape=table;startSize=30;container=1;collapsible=1;childLayout=tableLayout;fixedRows=1;rowLines=0;fontStyle=1;align=center;resizeLast=1;" parent="1" vertex="1">
          <mxGeometry y="15" width="250" height="130" as="geometry" />
        </mxCell>
        <mxCell id="-AXVuOv84AiDHwy_gBt_-2" value="" style="shape=partialRectangle;collapsible=0;dropTarget=0;pointerEvents=0;fillColor=none;points=[[0,0.5],[1,0.5]];portConstraint=eastwest;top=0;left=0;right=0;bottom=1;" parent="-AXVuOv84AiDHwy_gBt_-1" vertex="1">
          <mxGeometry y="30" width="250" height="30" as="geometry" />
        </mxCell>
        <mxCell id="-AXVuOv84AiDHwy_gBt_-3" value="PK" style="shape=partialRectangle;overflow=hidden;connectable=0;fillColor=none;top=0;left=0;bottom=0;right=0;fontStyle=1;" parent="-AXVuOv84AiDHwy_gBt_-2" vertex="1">
          <mxGeometry width="30" height="30" as="geometry">
            <mxRectangle width="30" height="30" as="alternateBounds" />
          </mxGeometry>
        </mxCell>
        <mxCell id="-AXVuOv84AiDHwy_gBt_-4" value="id_vivienda ---&gt; Caj Casa/Chales" style="shape=partialRectangle;overflow=hidden;connectable=0;fillColor=none;top=0;left=0;bottom=0;right=0;align=left;spacingLeft=6;fontStyle=5;" parent="-AXVuOv84AiDHwy_gBt_-2" vertex="1">
          <mxGeometry x="30" width="220" height="30" as="geometry">
            <mxRectangle width="220" height="30" as="alternateBounds" />
          </mxGeometry>
        </mxCell>
        <mxCell id="-AXVuOv84AiDHwy_gBt_-5" value="" style="shape=partialRectangle;collapsible=0;dropTarget=0;pointerEvents=0;fillColor=none;points=[[0,0.5],[1,0.5]];portConstraint=eastwest;top=0;left=0;right=0;bottom=0;" parent="-AXVuOv84AiDHwy_gBt_-1" vertex="1">
          <mxGeometry y="60" width="250" height="30" as="geometry" />
        </mxCell>
        <mxCell id="-AXVuOv84AiDHwy_gBt_-6" value="" style="shape=partialRectangle;overflow=hidden;connectable=0;fillColor=none;top=0;left=0;bottom=0;right=0;" parent="-AXVuOv84AiDHwy_gBt_-5" vertex="1">
          <mxGeometry width="30" height="30" as="geometry">
            <mxRectangle width="30" height="30" as="alternateBounds" />
          </mxGeometry>
        </mxCell>
        <mxCell id="-AXVuOv84AiDHwy_gBt_-7" value="direccion STRING" style="shape=partialRectangle;overflow=hidden;connectable=0;fillColor=none;top=0;left=0;bottom=0;right=0;align=left;spacingLeft=6;" parent="-AXVuOv84AiDHwy_gBt_-5" vertex="1">
          <mxGeometry x="30" width="220" height="30" as="geometry">
            <mxRectangle width="220" height="30" as="alternateBounds" />
          </mxGeometry>
        </mxCell>
        <mxCell id="-AXVuOv84AiDHwy_gBt_-27" value="" style="shape=partialRectangle;collapsible=0;dropTarget=0;pointerEvents=0;fillColor=none;points=[[0,0.5],[1,0.5]];portConstraint=eastwest;top=0;left=0;right=0;bottom=0;" parent="-AXVuOv84AiDHwy_gBt_-1" vertex="1">
          <mxGeometry y="90" width="250" height="30" as="geometry" />
        </mxCell>
        <mxCell id="-AXVuOv84AiDHwy_gBt_-28" value="" style="shape=partialRectangle;overflow=hidden;connectable=0;fillColor=none;top=0;left=0;bottom=0;right=0;" parent="-AXVuOv84AiDHwy_gBt_-27" vertex="1">
          <mxGeometry width="30" height="30" as="geometry">
            <mxRectangle width="30" height="30" as="alternateBounds" />
          </mxGeometry>
        </mxCell>
        <mxCell id="-AXVuOv84AiDHwy_gBt_-29" value="m2 STRING" style="shape=partialRectangle;overflow=hidden;connectable=0;fillColor=none;top=0;left=0;bottom=0;right=0;align=left;spacingLeft=6;" parent="-AXVuOv84AiDHwy_gBt_-27" vertex="1">
          <mxGeometry x="30" width="220" height="30" as="geometry">
            <mxRectangle width="220" height="30" as="alternateBounds" />
          </mxGeometry>
        </mxCell>
        <mxCell id="-AXVuOv84AiDHwy_gBt_-23" value="" style="group" parent="1" vertex="1" connectable="0">
          <mxGeometry x="150" y="440" width="70" height="75" as="geometry" />
        </mxCell>
        <mxCell id="-AXVuOv84AiDHwy_gBt_-18" value="" style="triangle;whiteSpace=wrap;html=1;rotation=90;" parent="-AXVuOv84AiDHwy_gBt_-23" vertex="1">
          <mxGeometry x="20" y="-5" width="30" height="40" as="geometry" />
        </mxCell>
        <mxCell id="-AXVuOv84AiDHwy_gBt_-19" value="" style="curved=1;endArrow=none;html=1;rounded=0;fontSize=12;startSize=8;endSize=8;endFill=0;" parent="-AXVuOv84AiDHwy_gBt_-23" edge="1">
          <mxGeometry width="50" height="50" relative="1" as="geometry">
            <mxPoint y="35" as="sourcePoint" />
            <mxPoint x="70" y="35" as="targetPoint" />
            <Array as="points">
              <mxPoint x="40" y="75" />
            </Array>
          </mxGeometry>
        </mxCell>
        <mxCell id="-AXVuOv84AiDHwy_gBt_-30" value="Chales" style="shape=table;startSize=30;container=1;collapsible=1;childLayout=tableLayout;fixedRows=1;rowLines=0;fontStyle=1;align=center;resizeLast=1;" parent="1" vertex="1">
          <mxGeometry x="-130" y="580" width="250" height="130" as="geometry" />
        </mxCell>
        <mxCell id="-AXVuOv84AiDHwy_gBt_-31" value="" style="shape=partialRectangle;collapsible=0;dropTarget=0;pointerEvents=0;fillColor=none;points=[[0,0.5],[1,0.5]];portConstraint=eastwest;top=0;left=0;right=0;bottom=1;" parent="-AXVuOv84AiDHwy_gBt_-30" vertex="1">
          <mxGeometry y="30" width="250" height="30" as="geometry" />
        </mxCell>
        <mxCell id="-AXVuOv84AiDHwy_gBt_-32" value="PK" style="shape=partialRectangle;overflow=hidden;connectable=0;fillColor=none;top=0;left=0;bottom=0;right=0;fontStyle=1;" parent="-AXVuOv84AiDHwy_gBt_-31" vertex="1">
          <mxGeometry width="30" height="30" as="geometry">
            <mxRectangle width="30" height="30" as="alternateBounds" />
          </mxGeometry>
        </mxCell>
        <mxCell id="-AXVuOv84AiDHwy_gBt_-33" value="id_chale" style="shape=partialRectangle;overflow=hidden;connectable=0;fillColor=none;top=0;left=0;bottom=0;right=0;align=left;spacingLeft=6;fontStyle=5;" parent="-AXVuOv84AiDHwy_gBt_-31" vertex="1">
          <mxGeometry x="30" width="220" height="30" as="geometry">
            <mxRectangle width="220" height="30" as="alternateBounds" />
          </mxGeometry>
        </mxCell>
        <mxCell id="-AXVuOv84AiDHwy_gBt_-34" value="" style="shape=partialRectangle;collapsible=0;dropTarget=0;pointerEvents=0;fillColor=none;points=[[0,0.5],[1,0.5]];portConstraint=eastwest;top=0;left=0;right=0;bottom=0;" parent="-AXVuOv84AiDHwy_gBt_-30" vertex="1">
          <mxGeometry y="60" width="250" height="30" as="geometry" />
        </mxCell>
        <mxCell id="-AXVuOv84AiDHwy_gBt_-35" value="" style="shape=partialRectangle;overflow=hidden;connectable=0;fillColor=none;top=0;left=0;bottom=0;right=0;" parent="-AXVuOv84AiDHwy_gBt_-34" vertex="1">
          <mxGeometry width="30" height="30" as="geometry">
            <mxRectangle width="30" height="30" as="alternateBounds" />
          </mxGeometry>
        </mxCell>
        <mxCell id="-AXVuOv84AiDHwy_gBt_-36" value="precio_estimado STRING" style="shape=partialRectangle;overflow=hidden;connectable=0;fillColor=none;top=0;left=0;bottom=0;right=0;align=left;spacingLeft=6;" parent="-AXVuOv84AiDHwy_gBt_-34" vertex="1">
          <mxGeometry x="30" width="220" height="30" as="geometry">
            <mxRectangle width="220" height="30" as="alternateBounds" />
          </mxGeometry>
        </mxCell>
        <mxCell id="-AXVuOv84AiDHwy_gBt_-37" value="" style="shape=partialRectangle;collapsible=0;dropTarget=0;pointerEvents=0;fillColor=none;points=[[0,0.5],[1,0.5]];portConstraint=eastwest;top=0;left=0;right=0;bottom=0;" parent="-AXVuOv84AiDHwy_gBt_-30" vertex="1">
          <mxGeometry y="90" width="250" height="30" as="geometry" />
        </mxCell>
        <mxCell id="-AXVuOv84AiDHwy_gBt_-38" value="" style="shape=partialRectangle;overflow=hidden;connectable=0;fillColor=none;top=0;left=0;bottom=0;right=0;" parent="-AXVuOv84AiDHwy_gBt_-37" vertex="1">
          <mxGeometry width="30" height="30" as="geometry">
            <mxRectangle width="30" height="30" as="alternateBounds" />
          </mxGeometry>
        </mxCell>
        <mxCell id="-AXVuOv84AiDHwy_gBt_-39" value="" style="shape=partialRectangle;overflow=hidden;connectable=0;fillColor=none;top=0;left=0;bottom=0;right=0;align=left;spacingLeft=6;" parent="-AXVuOv84AiDHwy_gBt_-37" vertex="1">
          <mxGeometry x="30" width="220" height="30" as="geometry">
            <mxRectangle width="220" height="30" as="alternateBounds" />
          </mxGeometry>
        </mxCell>
        <mxCell id="-AXVuOv84AiDHwy_gBt_-40" value="Casas" style="shape=table;startSize=30;container=1;collapsible=1;childLayout=tableLayout;fixedRows=1;rowLines=0;fontStyle=1;align=center;resizeLast=1;" parent="1" vertex="1">
          <mxGeometry x="210" y="570" width="250" height="130" as="geometry" />
        </mxCell>
        <mxCell id="-AXVuOv84AiDHwy_gBt_-41" value="" style="shape=partialRectangle;collapsible=0;dropTarget=0;pointerEvents=0;fillColor=none;points=[[0,0.5],[1,0.5]];portConstraint=eastwest;top=0;left=0;right=0;bottom=1;" parent="-AXVuOv84AiDHwy_gBt_-40" vertex="1">
          <mxGeometry y="30" width="250" height="30" as="geometry" />
        </mxCell>
        <mxCell id="-AXVuOv84AiDHwy_gBt_-42" value="PK" style="shape=partialRectangle;overflow=hidden;connectable=0;fillColor=none;top=0;left=0;bottom=0;right=0;fontStyle=1;" parent="-AXVuOv84AiDHwy_gBt_-41" vertex="1">
          <mxGeometry width="30" height="30" as="geometry">
            <mxRectangle width="30" height="30" as="alternateBounds" />
          </mxGeometry>
        </mxCell>
        <mxCell id="-AXVuOv84AiDHwy_gBt_-43" value="id_casa" style="shape=partialRectangle;overflow=hidden;connectable=0;fillColor=none;top=0;left=0;bottom=0;right=0;align=left;spacingLeft=6;fontStyle=5;" parent="-AXVuOv84AiDHwy_gBt_-41" vertex="1">
          <mxGeometry x="30" width="220" height="30" as="geometry">
            <mxRectangle width="220" height="30" as="alternateBounds" />
          </mxGeometry>
        </mxCell>
        <mxCell id="-AXVuOv84AiDHwy_gBt_-44" value="" style="shape=partialRectangle;collapsible=0;dropTarget=0;pointerEvents=0;fillColor=none;points=[[0,0.5],[1,0.5]];portConstraint=eastwest;top=0;left=0;right=0;bottom=0;" parent="-AXVuOv84AiDHwy_gBt_-40" vertex="1">
          <mxGeometry y="60" width="250" height="30" as="geometry" />
        </mxCell>
        <mxCell id="-AXVuOv84AiDHwy_gBt_-45" value="" style="shape=partialRectangle;overflow=hidden;connectable=0;fillColor=none;top=0;left=0;bottom=0;right=0;" parent="-AXVuOv84AiDHwy_gBt_-44" vertex="1">
          <mxGeometry width="30" height="30" as="geometry">
            <mxRectangle width="30" height="30" as="alternateBounds" />
          </mxGeometry>
        </mxCell>
        <mxCell id="-AXVuOv84AiDHwy_gBt_-46" value="localizacion_ciudad STRING" style="shape=partialRectangle;overflow=hidden;connectable=0;fillColor=none;top=0;left=0;bottom=0;right=0;align=left;spacingLeft=6;" parent="-AXVuOv84AiDHwy_gBt_-44" vertex="1">
          <mxGeometry x="30" width="220" height="30" as="geometry">
            <mxRectangle width="220" height="30" as="alternateBounds" />
          </mxGeometry>
        </mxCell>
        <mxCell id="-AXVuOv84AiDHwy_gBt_-47" value="" style="shape=partialRectangle;collapsible=0;dropTarget=0;pointerEvents=0;fillColor=none;points=[[0,0.5],[1,0.5]];portConstraint=eastwest;top=0;left=0;right=0;bottom=0;" parent="-AXVuOv84AiDHwy_gBt_-40" vertex="1">
          <mxGeometry y="90" width="250" height="30" as="geometry" />
        </mxCell>
        <mxCell id="-AXVuOv84AiDHwy_gBt_-48" value="" style="shape=partialRectangle;overflow=hidden;connectable=0;fillColor=none;top=0;left=0;bottom=0;right=0;" parent="-AXVuOv84AiDHwy_gBt_-47" vertex="1">
          <mxGeometry width="30" height="30" as="geometry">
            <mxRectangle width="30" height="30" as="alternateBounds" />
          </mxGeometry>
        </mxCell>
        <mxCell id="-AXVuOv84AiDHwy_gBt_-49" value="" style="shape=partialRectangle;overflow=hidden;connectable=0;fillColor=none;top=0;left=0;bottom=0;right=0;align=left;spacingLeft=6;" parent="-AXVuOv84AiDHwy_gBt_-47" vertex="1">
          <mxGeometry x="30" width="220" height="30" as="geometry">
            <mxRectangle width="220" height="30" as="alternateBounds" />
          </mxGeometry>
        </mxCell>
        <mxCell id="-AXVuOv84AiDHwy_gBt_-21" value="" style="endArrow=none;html=1;rounded=0;fontSize=12;startSize=8;endSize=8;curved=1;entryX=1;entryY=0.5;entryDx=0;entryDy=0;exitX=0.5;exitY=0;exitDx=0;exitDy=0;" parent="1" source="-AXVuOv84AiDHwy_gBt_-30" target="-AXVuOv84AiDHwy_gBt_-18" edge="1">
          <mxGeometry width="50" height="50" relative="1" as="geometry">
            <mxPoint x="161.67" y="483.33000000000004" as="sourcePoint" />
            <mxPoint x="181.67" y="473.33000000000004" as="targetPoint" />
          </mxGeometry>
        </mxCell>
        <mxCell id="-AXVuOv84AiDHwy_gBt_-22" value="" style="endArrow=none;html=1;rounded=0;fontSize=12;startSize=8;endSize=8;curved=1;entryX=1;entryY=0.5;entryDx=0;entryDy=0;exitX=0.5;exitY=0;exitDx=0;exitDy=0;" parent="1" source="-AXVuOv84AiDHwy_gBt_-40" target="-AXVuOv84AiDHwy_gBt_-18" edge="1">
          <mxGeometry width="50" height="50" relative="1" as="geometry">
            <mxPoint x="221.67" y="483.33000000000004" as="sourcePoint" />
            <mxPoint x="271.66999999999996" y="463.33000000000004" as="targetPoint" />
          </mxGeometry>
        </mxCell>
        <mxCell id="-AXVuOv84AiDHwy_gBt_-58" value="" style="group" parent="1" vertex="1" connectable="0">
          <mxGeometry x="262.5" y="-135" width="80" height="60" as="geometry" />
        </mxCell>
        <mxCell id="-AXVuOv84AiDHwy_gBt_-55" value="" style="triangle;whiteSpace=wrap;html=1;container=0;rotation=-90;fillColor=#171717;" parent="-AXVuOv84AiDHwy_gBt_-58" vertex="1">
          <mxGeometry x="45" y="25" width="30" height="40" as="geometry" />
        </mxCell>
        <mxCell id="-AXVuOv84AiDHwy_gBt_-56" value="" style="triangle;whiteSpace=wrap;html=1;rotation=-90;container=0;fillColor=#030303;fontColor=#333333;strokeColor=#030303;" parent="-AXVuOv84AiDHwy_gBt_-58" vertex="1">
          <mxGeometry x="25" y="-5" width="30" height="40" as="geometry" />
        </mxCell>
        <mxCell id="-AXVuOv84AiDHwy_gBt_-57" value="" style="triangle;whiteSpace=wrap;html=1;rotation=-90;container=0;" parent="-AXVuOv84AiDHwy_gBt_-58" vertex="1">
          <mxGeometry x="5" y="25" width="30" height="40" as="geometry" />
        </mxCell>
        <mxCell id="-AXVuOv84AiDHwy_gBt_-59" value="Empleados" style="shape=table;startSize=30;container=1;collapsible=1;childLayout=tableLayout;fixedRows=1;rowLines=0;fontStyle=1;align=center;resizeLast=1;" parent="1" vertex="1">
          <mxGeometry x="402.5" y="15" width="250" height="130" as="geometry" />
        </mxCell>
        <mxCell id="-AXVuOv84AiDHwy_gBt_-60" value="" style="shape=partialRectangle;collapsible=0;dropTarget=0;pointerEvents=0;fillColor=none;points=[[0,0.5],[1,0.5]];portConstraint=eastwest;top=0;left=0;right=0;bottom=1;" parent="-AXVuOv84AiDHwy_gBt_-59" vertex="1">
          <mxGeometry y="30" width="250" height="30" as="geometry" />
        </mxCell>
        <mxCell id="-AXVuOv84AiDHwy_gBt_-61" value="PK" style="shape=partialRectangle;overflow=hidden;connectable=0;fillColor=none;top=0;left=0;bottom=0;right=0;fontStyle=1;" parent="-AXVuOv84AiDHwy_gBt_-60" vertex="1">
          <mxGeometry width="30" height="30" as="geometry">
            <mxRectangle width="30" height="30" as="alternateBounds" />
          </mxGeometry>
        </mxCell>
        <mxCell id="-AXVuOv84AiDHwy_gBt_-62" value="dni_empleado" style="shape=partialRectangle;overflow=hidden;connectable=0;fillColor=none;top=0;left=0;bottom=0;right=0;align=left;spacingLeft=6;fontStyle=5;" parent="-AXVuOv84AiDHwy_gBt_-60" vertex="1">
          <mxGeometry x="30" width="220" height="30" as="geometry">
            <mxRectangle width="220" height="30" as="alternateBounds" />
          </mxGeometry>
        </mxCell>
        <mxCell id="-AXVuOv84AiDHwy_gBt_-63" value="" style="shape=partialRectangle;collapsible=0;dropTarget=0;pointerEvents=0;fillColor=none;points=[[0,0.5],[1,0.5]];portConstraint=eastwest;top=0;left=0;right=0;bottom=0;" parent="-AXVuOv84AiDHwy_gBt_-59" vertex="1">
          <mxGeometry y="60" width="250" height="30" as="geometry" />
        </mxCell>
        <mxCell id="-AXVuOv84AiDHwy_gBt_-64" value="" style="shape=partialRectangle;overflow=hidden;connectable=0;fillColor=none;top=0;left=0;bottom=0;right=0;" parent="-AXVuOv84AiDHwy_gBt_-63" vertex="1">
          <mxGeometry width="30" height="30" as="geometry">
            <mxRectangle width="30" height="30" as="alternateBounds" />
          </mxGeometry>
        </mxCell>
        <mxCell id="-AXVuOv84AiDHwy_gBt_-65" value="nombre STRING" style="shape=partialRectangle;overflow=hidden;connectable=0;fillColor=none;top=0;left=0;bottom=0;right=0;align=left;spacingLeft=6;" parent="-AXVuOv84AiDHwy_gBt_-63" vertex="1">
          <mxGeometry x="30" width="220" height="30" as="geometry">
            <mxRectangle width="220" height="30" as="alternateBounds" />
          </mxGeometry>
        </mxCell>
        <mxCell id="-AXVuOv84AiDHwy_gBt_-66" value="" style="shape=partialRectangle;collapsible=0;dropTarget=0;pointerEvents=0;fillColor=none;points=[[0,0.5],[1,0.5]];portConstraint=eastwest;top=0;left=0;right=0;bottom=0;" parent="-AXVuOv84AiDHwy_gBt_-59" vertex="1">
          <mxGeometry y="90" width="250" height="30" as="geometry" />
        </mxCell>
        <mxCell id="-AXVuOv84AiDHwy_gBt_-67" value="" style="shape=partialRectangle;overflow=hidden;connectable=0;fillColor=none;top=0;left=0;bottom=0;right=0;" parent="-AXVuOv84AiDHwy_gBt_-66" vertex="1">
          <mxGeometry width="30" height="30" as="geometry">
            <mxRectangle width="30" height="30" as="alternateBounds" />
          </mxGeometry>
        </mxCell>
        <mxCell id="-AXVuOv84AiDHwy_gBt_-68" value="" style="shape=partialRectangle;overflow=hidden;connectable=0;fillColor=none;top=0;left=0;bottom=0;right=0;align=left;spacingLeft=6;" parent="-AXVuOv84AiDHwy_gBt_-66" vertex="1">
          <mxGeometry x="30" width="220" height="30" as="geometry">
            <mxRectangle width="220" height="30" as="alternateBounds" />
          </mxGeometry>
        </mxCell>
        <mxCell id="-AXVuOv84AiDHwy_gBt_-50" style="edgeStyle=none;curved=1;rounded=0;orthogonalLoop=1;jettySize=auto;html=1;exitX=0;exitY=0.5;exitDx=0;exitDy=0;fontSize=12;startSize=8;endSize=8;endArrow=none;endFill=0;entryX=0.5;entryY=1;entryDx=0;entryDy=0;" parent="1" source="-AXVuOv84AiDHwy_gBt_-69" target="-AXVuOv84AiDHwy_gBt_-1" edge="1">
          <mxGeometry relative="1" as="geometry">
            <mxPoint x="185" y="420" as="targetPoint" />
          </mxGeometry>
        </mxCell>
        <mxCell id="-AXVuOv84AiDHwy_gBt_-103" value="TOTAL Y DISJUNTA" style="edgeLabel;html=1;align=center;verticalAlign=middle;resizable=0;points=[];fontSize=12;" parent="-AXVuOv84AiDHwy_gBt_-50" vertex="1" connectable="0">
          <mxGeometry x="-0.454" y="-1" relative="1" as="geometry">
            <mxPoint x="1" as="offset" />
          </mxGeometry>
        </mxCell>
        <mxCell id="-AXVuOv84AiDHwy_gBt_-70" value="" style="edgeStyle=none;curved=1;rounded=0;orthogonalLoop=1;jettySize=auto;html=1;exitX=0;exitY=0.5;exitDx=0;exitDy=0;fontSize=12;startSize=8;endSize=8;endArrow=none;endFill=0;entryX=0.5;entryY=1;entryDx=0;entryDy=0;" parent="1" source="-AXVuOv84AiDHwy_gBt_-18" target="-AXVuOv84AiDHwy_gBt_-69" edge="1">
          <mxGeometry relative="1" as="geometry">
            <mxPoint x="185" y="380" as="targetPoint" />
            <mxPoint x="185" y="450" as="sourcePoint" />
          </mxGeometry>
        </mxCell>
        <mxCell id="-AXVuOv84AiDHwy_gBt_-69" value="" style="ellipse;whiteSpace=wrap;html=1;aspect=fixed;" parent="1" vertex="1">
          <mxGeometry x="177.5" y="390" width="15" height="15" as="geometry" />
        </mxCell>
        <mxCell id="-AXVuOv84AiDHwy_gBt_-72" value="&lt;div&gt;&lt;span style=&quot;background-color: initial;&quot;&gt;R1: Un chalé no podrá ser vendido por menos del precio estimado&lt;/span&gt;&lt;br&gt;&lt;/div&gt;&lt;div&gt;&lt;br&gt;&lt;/div&gt;&lt;div&gt;R2: Un empleado deberá tener al menos un registro dentro de VENTAS para existir&lt;/div&gt;&lt;div&gt;&lt;br&gt;&lt;/div&gt;" style="text;html=1;align=left;verticalAlign=top;whiteSpace=wrap;rounded=0;fontSize=16;" parent="1" vertex="1">
          <mxGeometry x="-200" y="760" width="730" height="190" as="geometry" />
        </mxCell>
        <mxCell id="-AXVuOv84AiDHwy_gBt_-79" value="VENTAS" style="text;html=1;align=center;verticalAlign=middle;whiteSpace=wrap;rounded=0;fontSize=16;" parent="1" vertex="1">
          <mxGeometry x="278" y="-60" width="60" height="30" as="geometry" />
        </mxCell>
        <mxCell id="-AXVuOv84AiDHwy_gBt_-80" value="precio_venta" style="ellipse;whiteSpace=wrap;html=1;" parent="1" vertex="1">
          <mxGeometry x="400" y="-135" width="110" height="40" as="geometry" />
        </mxCell>
        <mxCell id="-AXVuOv84AiDHwy_gBt_-82" style="edgeStyle=none;curved=1;rounded=0;orthogonalLoop=1;jettySize=auto;html=1;exitX=0;exitY=0;exitDx=0;exitDy=0;fontSize=12;startSize=8;endSize=8;endArrow=none;endFill=0;entryX=0.052;entryY=0.991;entryDx=0;entryDy=0;entryPerimeter=0;" parent="1" source="-AXVuOv84AiDHwy_gBt_-59" target="-AXVuOv84AiDHwy_gBt_-55" edge="1">
          <mxGeometry relative="1" as="geometry">
            <mxPoint x="360" y="-100" as="targetPoint" />
          </mxGeometry>
        </mxCell>
        <mxCell id="-AXVuOv84AiDHwy_gBt_-86" value="1...1" style="edgeLabel;html=1;align=center;verticalAlign=middle;resizable=0;points=[];fontSize=12;" parent="-AXVuOv84AiDHwy_gBt_-82" vertex="1" connectable="0">
          <mxGeometry x="-0.7825" y="-2" relative="1" as="geometry">
            <mxPoint as="offset" />
          </mxGeometry>
        </mxCell>
        <mxCell id="-AXVuOv84AiDHwy_gBt_-91" value="ID" style="edgeLabel;html=1;align=center;verticalAlign=middle;resizable=0;points=[];fontSize=12;" parent="-AXVuOv84AiDHwy_gBt_-82" vertex="1" connectable="0">
          <mxGeometry x="-0.2108" y="-4" relative="1" as="geometry">
            <mxPoint x="-32" y="-47" as="offset" />
          </mxGeometry>
        </mxCell>
        <mxCell id="-AXVuOv84AiDHwy_gBt_-93" value="0...n" style="edgeLabel;html=1;align=center;verticalAlign=middle;resizable=0;points=[];fontSize=12;" parent="-AXVuOv84AiDHwy_gBt_-82" vertex="1" connectable="0">
          <mxGeometry x="0.5104" y="-3" relative="1" as="geometry">
            <mxPoint as="offset" />
          </mxGeometry>
        </mxCell>
        <mxCell id="-AXVuOv84AiDHwy_gBt_-84" style="edgeStyle=none;curved=1;rounded=0;orthogonalLoop=1;jettySize=auto;html=1;exitX=0;exitY=0.5;exitDx=0;exitDy=0;entryX=-0.043;entryY=0.955;entryDx=0;entryDy=0;entryPerimeter=0;fontSize=12;startSize=8;endSize=8;endArrow=none;endFill=0;" parent="1" source="-AXVuOv84AiDHwy_gBt_-96" target="-AXVuOv84AiDHwy_gBt_-56" edge="1">
          <mxGeometry relative="1" as="geometry" />
        </mxCell>
        <mxCell id="-AXVuOv84AiDHwy_gBt_-97" value="" style="edgeStyle=none;curved=1;rounded=0;orthogonalLoop=1;jettySize=auto;html=1;exitX=0;exitY=0.5;exitDx=0;exitDy=0;entryX=-0.043;entryY=0.955;entryDx=0;entryDy=0;entryPerimeter=0;fontSize=12;startSize=8;endSize=8;endArrow=none;endFill=0;" parent="1" source="-AXVuOv84AiDHwy_gBt_-80" target="-AXVuOv84AiDHwy_gBt_-96" edge="1">
          <mxGeometry relative="1" as="geometry">
            <mxPoint x="400" y="-115" as="sourcePoint" />
            <mxPoint x="321" y="-104" as="targetPoint" />
          </mxGeometry>
        </mxCell>
        <mxCell id="-AXVuOv84AiDHwy_gBt_-96" value="" style="ellipse;whiteSpace=wrap;html=1;aspect=fixed;" parent="1" vertex="1">
          <mxGeometry x="392.5" y="-120" width="10" height="10" as="geometry" />
        </mxCell>
        <mxCell id="-AXVuOv84AiDHwy_gBt_-104" value="Las cardinalidades en ternarias las llevo fatal" style="text;html=1;align=center;verticalAlign=middle;resizable=0;points=[];autosize=1;strokeColor=none;fillColor=none;fontSize=16;" parent="1" vertex="1">
          <mxGeometry x="-90" y="-179" width="340" height="30" as="geometry" />
        </mxCell>
      </root>
    </mxGraphModel>
  </diagram>
</mxfile>
